<?xml version="1.0" standalone="no"?>
<!DOCTYPE svg PUBLIC "-//W3C//DTD SVG 20010904//EN"
 "http://www.w3.org/TR/2001/REC-SVG-20010904/DTD/svg10.dtd">
<svg version="1.0" xmlns="http://www.w3.org/2000/svg"
 width="355.000000pt" height="355.000000pt" viewBox="0 0 355.000000 355.000000"
 preserveAspectRatio="xMidYMid meet">
<metadata>
Created by potrace 1.11, written by Peter Selinger 2001-2013
</metadata>
<g transform="translate(0.000000,355.000000) scale(0.100000,-0.100000)"
fill="#000000" stroke="none">
<path d="M1320 3488 c-208 -103 -203 -382 8 -479 l49 -22 16 -86 c14 -74 13
-136 -2 -178 -1 -2 -1 -16 -1 -32 0 -27 -8 -34 -86 -75 -47 -25 -114 -68 -149
-96 -37 -30 -70 -48 -81 -46 -10 2 -37 7 -59 11 -58 10 -145 80 -159 128 -45
156 -254 190 -343 55 -24 -35 -28 -52 -28 -108 0 -54 5 -73 24 -101 40 -59 86
-83 164 -86 61 -2 72 -5 117 -40 32 -25 56 -54 70 -86 l21 -48 -35 -102 c-42
-121 -63 -243 -60 -347 2 -41 1 -82 -2 -91 -2 -8 -36 -40 -76 -69 -53 -40 -94
-60 -160 -81 l-88 -28 -48 29 c-46 29 -119 49 -158 44 -99 -14 -159 -51 -211
-130 -36 -55 -38 -61 -38 -138 0 -70 4 -87 28 -128 56 -93 132 -139 232 -140
121 -2 228 76 261 189 8 29 20 54 25 54 13 2 18 3 89 26 57 18 150 23 236 14
18 -2 49 -33 77 -77 29 -46 24 -41 136 -157 l84 -87 -7 -63 c-4 -34 -9 -76
-11 -92 -6 -43 -114 -265 -129 -265 -23 0 -95 -59 -111 -91 -75 -145 59 -322
212 -280 112 31 175 147 139 258 -12 36 93 231 164 306 58 61 60 62 112 62 63
0 215 -14 242 -22 62 -18 134 -152 166 -307 7 -33 4 -45 -23 -88 -115 -184 61
-413 271 -352 95 27 162 112 167 211 6 103 -42 185 -136 233 -33 17 -37 25
-59 107 -22 84 -24 117 -15 227 5 59 11 66 95 120 37 24 96 67 131 96 63 51
65 51 120 47 76 -6 168 -66 188 -123 47 -136 225 -170 322 -63 75 84 59 212
-37 285 -33 26 -46 29 -114 30 -69 1 -81 4 -122 32 -52 36 -89 92 -90 137 -1
16 9 62 21 100 12 39 24 86 27 105 11 73 23 89 98 124 51 24 90 35 138 38 l68
5 20 -33 c79 -127 238 -166 376 -92 48 26 107 99 128 158 58 162 -25 345 -182
398 -45 15 -150 9 -192 -11 -58 -28 -109 -76 -140 -131 -29 -50 -30 -51 -82
-54 -29 -1 -62 -4 -73 -6 -55 -8 -195 56 -195 89 0 14 -90 194 -120 242 l-21
31 28 69 c36 92 152 223 197 223 126 0 217 161 157 278 -35 69 -97 105 -178
104 -98 -2 -183 -88 -183 -186 0 -50 -118 -175 -209 -221 l-66 -33 -99 48
c-95 46 -196 77 -281 86 -22 3 -56 6 -75 9 -19 2 -45 4 -57 4 -36 1 -108 129
-125 222 l-14 77 32 26 c81 65 112 212 64 306 -51 101 -135 152 -253 156 -69
2 -85 -2 -137 -28z"/>
<path d="M511 3463 c-85 -11 -163 -103 -164 -196 -1 -120 95 -211 215 -202
139 9 226 155 169 281 -40 87 -118 129 -220 117z"/>
<path d="M433 705 c-64 -27 -93 -123 -57 -183 26 -44 62 -65 114 -66 79 -1
134 51 134 129 0 100 -98 161 -191 120z"/>
<path d="M2875 545 c-100 -54 -140 -163 -96 -260 35 -79 115 -122 204 -112
179 22 231 254 79 358 -45 30 -143 38 -187 14z"/>
</g>
</svg>
